<svg width="15" height="15" viewBox="0 0 15 15" fill="none" xmlns="http://www.w3.org/2000/svg">
<g id="alarm">
<mask id="mask0_414_1319" style="mask-type:alpha" maskUnits="userSpaceOnUse" x="0" y="0" width="15" height="15">
<rect id="Bounding box" width="15" height="15" fill="#D9D9D9"/>
</mask>
<g mask="url(#mask0_414_1319)">
<path id="alarm_2" d="M7.5 13.75C6.71875 13.75 5.98698 13.6016 5.30469 13.3047C4.6224 13.0078 4.02865 12.6068 3.52344 12.1016C3.01823 11.5964 2.61719 11.0026 2.32031 10.3203C2.02344 9.63802 1.875 8.90625 1.875 8.125C1.875 7.34375 2.02344 6.61198 2.32031 5.92969C2.61719 5.2474 3.01823 4.65365 3.52344 4.14844C4.02865 3.64323 4.6224 3.24219 5.30469 2.94531C5.98698 2.64844 6.71875 2.5 7.5 2.5C8.28125 2.5 9.01302 2.64844 9.69531 2.94531C10.3776 3.24219 10.9714 3.64323 11.4766 4.14844C11.9818 4.65365 12.3828 5.2474 12.6797 5.92969C12.9766 6.61198 13.125 7.34375 13.125 8.125C13.125 8.90625 12.9766 9.63802 12.6797 10.3203C12.3828 11.0026 11.9818 11.5964 11.4766 12.1016C10.9714 12.6068 10.3776 13.0078 9.69531 13.3047C9.01302 13.6016 8.28125 13.75 7.5 13.75ZM9.25 10.75L10.125 9.875L8.125 7.875V5H6.875V8.375L9.25 10.75ZM3.5 1.46875L4.375 2.34375L1.71875 5L0.84375 4.125L3.5 1.46875ZM11.5 1.46875L14.1562 4.125L13.2812 5L10.625 2.34375L11.5 1.46875ZM7.5 12.5C8.71875 12.5 9.7526 12.0755 10.6016 11.2266C11.4505 10.3776 11.875 9.34375 11.875 8.125C11.875 6.90625 11.4505 5.8724 10.6016 5.02344C9.7526 4.17448 8.71875 3.75 7.5 3.75C6.28125 3.75 5.2474 4.17448 4.39844 5.02344C3.54948 5.8724 3.125 6.90625 3.125 8.125C3.125 9.34375 3.54948 10.3776 4.39844 11.2266C5.2474 12.0755 6.28125 12.5 7.5 12.5Z" fill="#1C1B1F"/>
</g>
</g>
</svg>
