<svg width="103" height="48" viewBox="0 0 103 48" fill="none" xmlns="http://www.w3.org/2000/svg">
<g id="Logo">
<g id="Group 176">
<g id="Logo_2">
<path id="Vector" d="M50.7852 34.4145C50.8236 34.3909 50.8619 34.3655 50.9118 34.3321C50.4228 34.1126 50.2445 33.7245 50.2617 33.2129C50.2732 32.8836 50.2694 32.5542 50.2636 32.2249C50.254 31.6702 49.8974 31.2938 49.349 31.2723C48.9789 31.2586 48.6069 31.2723 48.2368 31.2684C47.604 31.2644 47.2128 30.892 47.2128 30.251C47.2051 27.8517 47.2051 25.4505 47.2128 23.0512C47.2147 22.371 47.6231 21.979 48.2943 21.9731C48.6414 21.9711 48.9904 21.9731 49.3374 21.9731C49.907 21.9731 50.2598 21.6163 50.2636 21.0302C50.2675 20.6617 50.2617 20.2932 50.2636 19.9247C50.2675 19.2916 50.6376 18.9152 51.2569 18.9152C53.8054 18.9152 56.3557 18.9152 58.9042 18.9152C59.2008 18.9152 59.3484 18.7688 59.3471 18.4761C59.3471 16.6727 59.3471 14.8674 59.3471 13.064C59.3471 12.7504 59.351 12.7465 59.6559 12.7465C60.5053 12.7465 61.3548 12.7523 62.2043 12.7425C62.4152 12.7406 62.4824 12.8053 62.4824 13.0228C62.4785 20.058 62.4785 27.0951 62.4785 34.1302C62.4785 34.2243 62.4689 34.3184 62.4632 34.4125H50.7833L50.7852 34.4145ZM59.3471 26.6286C59.3471 25.1937 59.3452 23.7569 59.351 22.322C59.351 22.124 59.2973 22.0437 59.0883 22.0437C56.5168 22.0476 53.9434 22.0397 51.372 22.0437C50.6414 22.0437 50.3327 22.3808 50.3327 23.1179C50.3327 24.7566 50.3327 26.3973 50.3346 28.036C50.3346 28.7887 50.3288 29.5414 50.3403 30.2941C50.348 30.8528 50.7047 31.1958 51.2512 31.1958C53.8476 31.1958 56.442 31.1958 59.0384 31.1958C59.3491 31.1958 59.351 31.1958 59.351 30.8842C59.351 29.465 59.351 28.0438 59.351 26.6246L59.3471 26.6286Z" fill="black"/>
<path id="Vector_2" d="M68.3973 34.414C68.4318 34.3865 68.4683 34.3611 68.5181 34.3219C67.9659 34.1474 67.8048 33.7436 67.8201 33.2085C67.8297 32.8262 67.8623 32.4401 67.7933 32.0598C67.707 31.5874 67.3925 31.2973 66.917 31.2757C66.5239 31.26 66.1288 31.2718 65.7357 31.2698C65.1835 31.2679 64.7827 30.8778 64.7731 30.3152C64.7635 29.7585 64.7693 29.2018 64.7693 28.6451C64.7693 26.8182 64.7693 24.9913 64.7693 23.1644C64.7693 22.3333 65.124 21.9746 65.9409 21.9726C66.265 21.9726 66.5891 21.9746 66.9131 21.9726C67.45 21.9707 67.8144 21.608 67.8221 21.0592C67.8278 20.6671 67.8221 20.2751 67.824 19.883C67.8278 19.2969 68.2094 18.9147 68.7866 18.9147C72.4319 18.9147 76.0772 18.9147 79.7205 18.9147C80.0331 18.9147 80.0427 18.9225 80.0427 19.2205C80.0427 24.2072 80.0408 29.1959 80.0389 34.1827C80.0389 34.263 80.0389 34.3395 80.0753 34.412H68.3954L68.3973 34.414ZM76.9094 26.634C76.9094 25.2226 76.9094 23.8113 76.9094 22.398C76.9094 22.1614 76.7905 22.0432 76.5527 22.0432C74.058 22.0432 71.5632 22.0412 69.0685 22.0393C68.9688 22.0393 68.8671 22.0393 68.7674 22.0471C68.2324 22.0883 67.9007 22.4352 67.893 22.9762C67.8873 23.431 67.893 23.8858 67.893 24.3405C67.893 26.3086 67.893 28.2786 67.8968 30.2466C67.8968 30.8503 68.2497 31.1973 68.8345 31.1973C71.4137 31.1973 73.9947 31.1973 76.5738 31.1973C76.7963 31.1973 76.9075 31.0875 76.9075 30.868C76.9075 29.4566 76.9075 28.0453 76.9075 26.632L76.9094 26.634Z" fill="black"/>
<path id="Vector_3" d="M8.88581 34.414C8.92416 34.3905 8.96251 34.3669 9.02196 34.3297C8.44669 34.1258 8.29904 33.6848 8.31054 33.134C8.31629 32.7753 8.35848 32.4126 8.27603 32.0559C8.15138 31.5148 7.87142 31.2816 7.33067 31.2718C6.96058 31.2639 6.58857 31.2757 6.21848 31.2698C5.67389 31.262 5.31147 30.9052 5.31147 30.3544C5.30763 27.861 5.30763 25.3657 5.31147 22.8723C5.31147 22.3725 5.71224 21.9961 6.25875 21.9765C6.64418 21.9628 7.03153 21.9746 7.41696 21.9726C7.94045 21.9726 8.30479 21.61 8.31438 21.0748C8.32013 20.6906 8.31246 20.3064 8.31629 19.9222C8.32396 19.3048 8.71131 18.9147 9.3211 18.9147C12.9587 18.9147 16.5963 18.9147 20.234 18.9147C20.5235 18.9147 20.535 18.9284 20.535 19.2185C20.535 24.2072 20.5331 29.194 20.5312 34.1827C20.5312 34.263 20.5312 34.3395 20.5676 34.412H8.88581V34.414ZM17.4477 26.6222C17.4477 25.1873 17.4477 23.7525 17.4497 22.3176C17.4497 22.1373 17.4132 22.0451 17.208 22.0451C14.5982 22.0491 11.9865 22.0412 9.37671 22.0451C8.71898 22.0451 8.38149 22.4097 8.37957 23.0742C8.37574 23.725 8.38341 24.3758 8.38341 25.0266C8.38341 26.7673 8.37957 28.5079 8.38724 30.2486C8.38916 30.8425 8.75733 31.1973 9.33452 31.1973C11.9367 31.1973 14.5388 31.1973 17.1428 31.1973C17.4477 31.1973 17.4497 31.1973 17.4497 30.8797C17.4497 29.4606 17.4497 28.0414 17.4497 26.6222H17.4477Z" fill="black"/>
<path id="Vector_4" d="M85.9648 34.4138C86.0147 34.3727 86.0722 34.3413 85.961 34.2923C85.5257 34.1002 85.3819 33.7435 85.3972 33.2848C85.4087 32.9319 85.4106 32.5791 85.3934 32.2263C85.3665 31.6441 85.0003 31.2873 84.4269 31.2736C84.0568 31.2658 83.6848 31.2736 83.3147 31.2736C82.7721 31.2736 82.3962 30.9286 82.3425 30.3778C82.3387 30.3308 82.3368 30.2837 82.3368 30.2367C82.3368 27.8217 82.3349 25.4048 82.3368 22.9898C82.3368 22.392 82.7318 21.9901 83.3282 21.9764C83.6983 21.9666 84.0703 21.9764 84.4404 21.9764C84.9965 21.9764 85.3646 21.6412 85.3934 21.0727C85.4145 20.6729 85.3972 20.273 85.4011 19.8731C85.4049 19.2948 85.775 18.9185 86.3464 18.9185C88.7568 18.9185 91.1653 18.9185 93.5756 18.9185C94.149 18.9185 94.544 19.3203 94.5536 19.9064C94.5593 20.2828 94.5536 20.6591 94.5555 21.0355C94.5613 21.6098 94.9199 21.9705 95.4894 21.9744C95.8441 21.9764 96.2008 21.9725 96.5555 21.9744C97.2056 21.9803 97.6275 22.4292 97.5987 23.0859C97.5066 25.2421 97.5795 27.3983 97.5603 29.5545C97.5603 29.6153 97.5699 29.676 97.6102 29.7368C97.614 29.6662 97.6198 29.5957 97.6198 29.5251C97.6198 27.8962 97.6274 26.2653 97.614 24.6364C97.6102 24.1816 97.6121 23.7269 97.6332 23.274C97.639 23.1584 97.6274 23.0369 97.6907 22.931V30.2269C97.6313 30.1465 97.66 30.0406 97.6025 29.8877C97.6025 30.0034 97.6025 30.0504 97.6025 30.0975C97.6121 30.9169 97.2574 31.2795 96.4577 31.2736C96.126 31.2716 95.7943 31.2599 95.4625 31.2736C94.9026 31.2991 94.5555 31.6813 94.5536 32.2478C94.5536 32.6399 94.5536 33.0299 94.5536 33.422C94.5536 33.6944 94.4405 33.9218 94.2564 34.1139C94.1509 34.2237 94.0052 34.2727 93.8537 34.3433C93.917 34.3786 93.9496 34.3982 93.9822 34.4158H85.9648V34.4138ZM85.4701 26.626C85.4701 27.8413 85.4701 29.0566 85.4701 30.2719C85.4701 30.8776 85.7865 31.1972 86.3867 31.1972C88.7951 31.1972 91.2055 31.1972 93.614 31.1972C93.9937 31.1972 94.2334 30.9992 94.4002 30.6777C94.5018 30.4817 94.4865 30.2661 94.4884 30.0563C94.4884 27.7747 94.4884 25.493 94.4903 23.2113C94.4903 23.1015 94.4903 22.9918 94.4807 22.882C94.4424 22.4233 94.103 22.0842 93.6523 22.0489C93.5296 22.0391 93.405 22.0411 93.2822 22.0391C91.0579 22.0391 88.8354 22.0372 86.611 22.0372C86.5113 22.0372 86.4097 22.0372 86.31 22.047C85.7903 22.094 85.472 22.4508 85.472 22.9781C85.472 24.1934 85.472 25.4087 85.472 26.624L85.4701 26.626Z" fill="black"/>
<path id="Vector_5" d="M40.544 34.415C40.5689 34.3816 40.6629 34.3542 40.5555 34.3052C40.0454 34.07 39.8978 33.6427 39.9246 33.1095C39.9399 32.7958 39.9342 32.4822 39.9265 32.1686C39.9169 31.6589 39.5699 31.2943 39.0694 31.2767C38.6686 31.263 38.2659 31.2728 37.8651 31.2728C37.3014 31.2728 36.9179 30.8905 36.9159 30.3142C36.9121 27.6248 36.9159 24.9335 36.9121 22.2441C36.9121 22.0422 36.9696 21.9658 37.1767 21.9697C37.7942 21.9814 38.4116 21.9736 39.031 21.9756C39.5814 21.9756 39.9227 21.6306 39.9284 21.068C39.9304 20.676 39.9342 20.2839 39.9246 19.8919C39.9093 19.3136 39.5833 18.9961 39.0195 18.9961C38.4097 18.9961 37.7999 18.9902 37.1882 19C36.9926 19.0039 36.914 18.9451 36.914 18.7334C36.9198 16.8202 36.9179 14.9071 36.914 12.992C36.914 12.8058 36.985 12.747 37.1614 12.747C38.0109 12.7528 38.8604 12.7548 39.7098 12.747C39.9323 12.745 40.0032 12.8195 40.0032 13.0449C39.9956 14.5347 39.9994 16.0244 40.0032 17.5161C40.0032 17.6808 40.0147 17.8454 40.0339 18.0081C40.1087 18.6079 40.4308 18.9059 41.0368 18.9177C41.6236 18.9294 42.2103 18.9275 42.7971 18.9196C43.0004 18.9157 43.0637 18.9882 43.0617 19.194C43.0522 20.0408 43.0579 20.8877 43.0579 21.7345C43.0579 22.0383 43.0483 22.05 42.7434 22.05C42.2027 22.05 41.6619 22.0461 41.1212 22.0442C40.9352 22.0442 40.7511 22.0598 40.5747 22.1245C40.218 22.2519 40.009 22.5519 40.0032 22.9792C39.9956 23.6535 39.9994 24.3278 39.9994 25.0021C39.9994 26.7349 39.9994 28.4677 39.9994 30.2025C39.9994 30.4769 40.0492 30.7337 40.2487 30.9376C40.4385 31.1336 40.6686 31.2081 40.939 31.2081C42.5306 31.2022 44.1202 31.2042 45.7118 31.2042C45.9534 31.2042 46.0736 31.3237 46.0723 31.5629C46.0685 32.4724 46.0646 33.3819 46.0608 34.2915C46.0608 34.3424 46.0781 34.3816 46.1068 34.4208H40.5459L40.544 34.415Z" fill="black"/>
<path id="Vector_6" d="M23.0234 34.4138C23.0656 34.3335 23.0598 34.2472 23.0598 34.161C23.0598 30.515 23.0598 26.869 23.0579 23.2231C23.0579 23.1368 23.0579 23.0506 23.0618 22.9643C23.102 22.3841 23.4951 21.994 24.0704 21.9764C24.4021 21.9666 24.7339 21.9725 25.0656 21.9764C25.7617 21.9803 26.0896 21.6667 26.1088 20.9571C26.1203 20.5886 26.1088 20.2201 26.1126 19.8515C26.1164 19.3086 26.498 18.9185 27.033 18.9185C29.8058 18.9185 32.5767 18.9185 35.3495 18.9204C35.6371 18.9204 35.641 18.9322 35.641 19.2302C35.641 19.9829 35.641 20.7356 35.641 21.4883C35.641 22.1175 35.7119 22.047 35.081 22.047C32.4866 22.047 29.8921 22.047 27.2977 22.0391C26.9621 22.0391 26.6514 22.0842 26.406 22.3449C26.266 22.4939 26.1797 22.6585 26.1816 22.8683C26.1835 23.276 26.1816 23.6837 26.1816 24.0914C26.1816 27.3689 26.1855 30.6463 26.1855 33.9238C26.1855 34.0885 26.1778 34.2511 26.174 34.4158H23.0215L23.0234 34.4138Z" fill="black"/>
</g>
</g>
</g>
</svg>
